Coordinates
version=1
nRows=15
nColumns=34
inDegrees=yes

Units are S.I. units (second, meters, Newtons, ...)
If the header above contains a line with 'inDegrees', this indicates whether rotational values are in degrees (yes) or radians (no).

endheader
time	pelvis_tilt	pelvis_list	pelvis_rotation	pelvis_tx	pelvis_ty	pelvis_tz	hip_flexion_r	hip_adduction_r	hip_rotation_r	knee_angle_r	ankle_angle_r	subtalar_angle_r	mtp_angle_r	hip_flexion_l	hip_adduction_l	hip_rotation_l	knee_angle_l	ankle_angle_l	subtalar_angle_l	mtp_angle_l	lumbar_extension	lumbar_bending	lumbar_rotation	arm_flex_r	arm_add_r	arm_rot_r	elbow_flex_r	pro_sup_r	arm_flex_l	arm_add_l	arm_rot_l	elbow_flex_l	pro_sup_l
      1.31666670	    -11.79672058	      2.33310040	     -8.60795511	      0.00782904	      1.14416019	     -0.07105779	     26.32747337	      1.21233391	      5.30865262	     41.24292277	     29.28309837	    -10.04929472	      0.00000000	     27.94401685	     -1.79556432	     -2.73050170	     47.10817426	     27.84249504	     -6.41951038	      0.00000000	    -30.57454530	     -1.42384477	      0.68974814	     -0.19582193	    -10.51660951	    -10.89317687	     20.79414300	     95.24011835	      6.77547011	    -12.28311572	     -5.31321480	     31.14826421	     84.02384977
      1.33333330	    -11.63932583	      2.27486423	     -8.39283078	      0.01357746	      1.13842200	     -0.06999818	     27.65437653	      1.26071489	      5.13885860	     44.90573219	     32.71677918	     -8.46436185	      0.00000000	     29.58392058	     -2.30062970	     -3.35940452	     51.74398060	     30.43833111	     -5.42441970	      0.00000000	    -32.10107321	     -1.35360023	      0.44931938	      2.73797391	     -9.91644785	    -10.22652676	     21.56375724	     95.09241386	      9.16981463	    -12.05770419	     -4.92537965	     31.43237773	     84.10483597
      1.35000000	    -11.23434411	      2.20633696	     -8.38281482	      0.01825591	      1.13202504	     -0.06849578	     28.38161958	      1.32160276	      5.11206573	     48.04019365	     35.49726272	     -6.79727566	      0.00000000	     30.59224380	     -2.80469999	     -3.89578642	     55.48741566	     31.87308834	     -4.76848363	      0.00000000	    -33.76147175	     -1.33271269	      0.48312940	      6.07474543	     -9.36211701	     -9.48536116	     22.42728767	     94.98520455	     12.03562228	    -11.71389959	     -4.34255706	     31.69642893	     84.24823399
      1.36666670	    -10.86327657	      2.22226423	     -8.61818224	      0.02699864	      1.11976754	     -0.06546174	     28.45564831	      1.35996876	      5.24020247	     50.82551895	     37.67903670	     -6.19632905	      0.00000000	     31.23822635	     -3.31694058	     -4.39925485	     58.59571463	     33.09327680	     -4.40645470	      0.00000000	    -34.98600257	     -1.56256814	      0.78007401	      9.44592493	     -8.68585118	     -8.93043169	     23.38084619	     94.97045002	     14.88821409	    -11.28318117	     -3.87852013	     32.23175394	     84.37124739
      1.38333330	    -10.05217429	      2.35475067	     -9.25291460	      0.04010424	      1.12059780	     -0.06327138	     27.28829866	      1.07661135	      5.42074790	     52.59343531	     38.91533466	     -4.71783173	      0.00000000	     29.81933534	     -3.62229136	     -5.32850886	     59.76936012	     34.43933372	     -2.59850644	      0.00000000	    -36.72997287	     -1.92954629	      1.50507698	     13.45408662	     -8.55748464	     -6.30798492	     23.69940467	     94.96747075	     18.95607337	    -10.83887391	     -0.83535868	     31.60078159	     85.16922160
      1.40000000	     -9.55500784	      2.65433492	     -9.75711557	      0.04591457	      1.11775819	     -0.06490773	     26.11443263	      0.77935238	      6.09435354	     53.25140368	     40.29502882	     -2.85488184	      0.00000000	     28.83815514	     -3.77546268	     -6.44837570	     60.76335306	     33.77047012	     -2.72928222	      0.00000000	    -37.86243008	     -2.44383185	      2.14976761	     18.07713912	     -8.23654284	     -4.04464245	     24.93525343	     94.92315042	     23.49523082	    -10.21658468	      1.95982663	     31.40389847	     85.78462332
      1.41666670	     -9.65853160	      2.99832524	    -10.37335354	      0.04015368	      1.10858949	     -0.06959367	     26.87223247	      0.32407675	      6.39129403	     54.82522843	     41.02501193	     -1.98825149	      0.00000000	     29.28275421	     -3.55919945	     -7.08865888	     61.98808068	     33.05023926	     -3.07806661	      0.00000000	    -38.30223961	     -2.76931822	      3.03147034	     24.10785514	     -8.27449013	     -1.32454706	     26.04878302	     95.18186511	     29.68005824	     -8.91608232	      4.78385923	     30.96904919	     86.30981684
      1.43333330	    -10.13453282	      3.30425674	    -10.80153336	      0.04194328	      1.10711931	     -0.07253595	     27.43590647	     -0.12549417	      6.90327129	     55.22175097	     41.43130332	     -1.26480137	      0.00000000	     29.91968327	     -3.03636317	     -7.29452845	     62.77210708	     32.80577930	     -3.92930156	      0.00000000	    -38.12799386	     -2.94237431	      3.70773299	     30.76040180	     -8.06264892	      1.80705322	     27.57490833	     95.59204503	     36.84220296	     -7.37771020	      7.92453237	     30.50177704	     86.80331191
      1.45000000	    -10.67445508	      3.63251074	    -10.88414124	      0.04704161	      1.11051498	     -0.07137536	     27.88732414	     -0.77022051	      6.87293693	     55.40112099	     40.31307374	     -2.41808269	      0.00000000	     30.39927172	     -2.28237315	     -7.16658730	     62.72736825	     31.91412758	     -4.65520256	      0.00000000	    -37.97456113	     -3.14245313	      4.18002474	     37.70240736	     -7.37078650	      4.95423528	     29.83608857	     95.70650975	     44.83680779	     -5.45100091	     10.70107936	     30.40183433	     86.93544441
      1.46666670	    -11.39959389	      4.00552505	    -10.61757233	      0.06098670	      1.09767513	     -0.06814770	     28.70240223	     -1.15551002	      6.92866995	     56.50073183	     40.83903256	     -2.40294535	      0.00000000	     31.07496194	     -1.58906047	     -6.60405368	     62.59870834	     32.96552094	     -4.36021735	      0.00000000	    -36.52074264	     -3.26393902	      3.76707675	     42.49509538	     -5.81817971	      5.69989557	     33.73982505	     95.35170515	     50.38507262	     -3.97325887	     10.76002309	     31.93836314	     86.62626412
      1.48333330	    -12.28629090	      4.39009624	     -9.99723132	      0.07008747	      1.08956474	     -0.06568947	     29.02135934	     -1.25094933	      6.91863485	     56.71602405	     42.95405138	     -0.22188785	      0.00000000	     31.65780997	     -1.01489469	     -6.02468332	     63.06734896	     34.13959956	     -4.21045933	      0.00000000	    -34.06384109	     -3.39619558	      3.88175922	     46.63635025	     -4.59805779	      5.71663541	     39.65528401	     94.54250239	     54.85673418	     -1.88781903	      9.96778623	     34.92757445	     86.09396516
      1.50000000	    -13.11393591	      4.73222550	     -9.47510445	      0.07485045	      1.09038824	     -0.06221838	     29.19017466	     -0.96770390	      7.25590028	     56.20536230	     45.43198131	      2.70610262	      0.00000000	     32.14216314	     -0.68245286	     -5.49009521	     63.35981913	     33.71206040	     -5.15124686	      0.00000000	    -31.54410581	     -3.61551069	      3.92398931	     50.66265445	     -3.11952355	      4.76891560	     45.63259324	     93.33122317	     58.83907432	     -0.05845798	      8.89663515	     38.32411267	     85.43198787
      1.51666670	    -13.89919595	      4.98102863	     -9.46800351	      0.08620509	      1.09265900	     -0.06068761	     28.74541227	     -0.69249931	      7.74511279	     54.66215152	     46.20396070	      5.01999941	      0.00000000	     32.06997822	     -0.42243435	     -5.08325687	     62.91553866	     32.65401478	     -6.20752807	      0.00000000	    -28.88540758	     -3.81374860	      4.28921233	     55.25215180	     -1.49794413	      4.75765087	     49.68761114	     91.88040446	     62.00417251	      1.64561320	      8.09444055	     42.15738913	     84.49386898
      1.53333330	    -14.85801347	      5.36705768	     -9.62779149	      0.09876763	      1.09457292	     -0.05697422	     27.80607407	     -1.00896627	      7.92464880	     53.00056113	     45.58953606	      4.80945323	      0.00000000	     31.23483009	      0.12857026	     -4.76090116	     60.89510461	     32.36896017	     -6.86258083	      0.00000000	    -25.64731096	     -4.21352721	      4.50240824	     58.88241728	     -0.60801081	      5.29339705	     52.80049866	     90.91124604	     64.51395556	      2.61820523	      7.71097103	     45.85749691	     83.56373937
      1.55000000	    -15.44461670	      5.89692061	     -9.52984189	      0.11930266	      1.10743578	     -0.05489460	     26.08826553	     -1.49312357	      8.26451888	     50.10011615	     45.60759905	      6.20744293	      0.00000000	     28.96123462	      0.99532474	     -4.49237307	     57.25420329	     31.03502715	     -7.78247340	      0.00000000	    -22.61131961	     -4.87939900	      4.40306594	     60.68343749	     -0.13308402	      5.69902312	     56.30841327	     90.38110972	     65.58151122	      3.51054688	      7.29811007	     49.83402606	     82.80008703
